<svg width="22" height="22" viewBox="0 0 22 22" fill="none" xmlns="http://www.w3.org/2000/svg">
<rect width="22" height="22" rx="11" fill="#ED1C24" fill-opacity="0.1"/>
<path fill-rule="evenodd" clip-rule="evenodd" d="M7.98798 6.01302C7.73089 6.69374 4.51311 15.3637 4.50779 15.3899L4.5 15.4284L6.12541 15.4241L7.75083 15.4197L8.35452 13.8004C8.68655 12.9097 8.96212 12.181 8.96686 12.181C8.9716 12.181 9.42838 13.0388 9.98193 14.0872C10.5355 15.1356 10.993 15.9963 10.9987 16C11.0044 16.0036 11.4626 15.146 12.017 14.0942C12.5713 13.0423 13.0293 12.1816 13.0346 12.1814C13.04 12.1812 13.2809 12.8136 13.5699 13.5867C13.859 14.3599 14.1323 15.0905 14.1773 15.2104L14.2591 15.4283H15.8796H17.5L17.4928 15.3898C17.484 15.3434 14.0241 6.02529 14.0086 6.00648C14.0026 5.99921 13.3251 7.07781 12.503 8.40335C11.6809 9.72889 11.0046 10.8131 11 10.8127C10.9955 10.8123 10.3276 9.74052 9.51582 8.43097C8.70407 7.12144 8.03024 6.03633 8.01842 6.01962C8.0013 5.99542 7.99513 5.99407 7.98798 6.01302Z" fill="#ED1C24"/>
</svg>
