<svg width="22" height="22" viewBox="0 0 22 22" fill="none" xmlns="http://www.w3.org/2000/svg">
<g clip-path="url(#clip0_2001_1173)">
<path d="M17.6597 11.0275C19.7961 10.3974 21.3554 8.42109 21.3554 6.0806C21.3554 3.2326 19.0466 0.923828 16.1986 0.923828C14.152 0.923828 12.3838 2.11612 11.5508 3.84398" stroke="currentColor" stroke-opacity="0.6" stroke-width="1.2" stroke-miterlimit="10"/>
<path d="M12.8037 9.9624C13.3236 10.4175 13.9358 10.7698 14.6086 10.9877" stroke="currentColor" stroke-opacity="0.6" stroke-width="1.2" stroke-miterlimit="10"/>
<path d="M16.1986 9.24487L19.7954 13.5128V21.0762H12.6019V13.5128L16.1986 9.24487Z" stroke="currentColor" stroke-opacity="0.6" stroke-width="1.2" stroke-miterlimit="10"/>
<path d="M9.26984 5.34595L11.4881 7.56418" stroke="currentColor" stroke-opacity="0.6" stroke-width="1.2" stroke-miterlimit="10"/>
<path d="M6.88025 4.26707C8.45053 2.69679 10.9964 2.69679 12.5667 4.26707C14.137 5.83735 14.137 8.38325 12.5667 9.95353C11.39 11.1302 9.66577 11.4243 8.21448 10.8375L1.58566 17.4663L0.644592 16.5298V13.9755L1.77208 12.8435L1.89739 11.6514L3.18031 11.3851C3.27975 10.9061 3.44657 10.1022 3.44657 10.1022L4.79279 9.82276L5.99629 8.61925C5.40949 7.16797 5.7036 5.44376 6.88025 4.26707Z" stroke="currentColor" stroke-opacity="0.6" stroke-width="1.2" stroke-miterlimit="10"/>
<path d="M18.0035 18.4978H14.3937" stroke="currentColor" stroke-opacity="0.6" stroke-width="1.2" stroke-miterlimit="10"/>
<path d="M18.0035 15.9194H14.3937" stroke="currentColor" stroke-opacity="0.6" stroke-width="1.2" stroke-miterlimit="10"/>
</g>
<defs>
<clipPath id="clip0_2001_1173">
<rect width="22" height="22" fill="white"/>
</clipPath>
</defs>
</svg>
