<svg width="22" height="22" viewBox="0 0 22 22" fill="none" xmlns="http://www.w3.org/2000/svg">
<g clip-path="url(#clip0_2001_2472)">
<mask id="mask0_2001_2472" style="mask-type:luminance" maskUnits="userSpaceOnUse" x="0" y="0" width="22" height="22">
<path d="M0 1.90735e-06H22V22H0V1.90735e-06Z" fill="white"/>
</mask>
<g mask="url(#mask0_2001_2472)">
<path d="M17.4883 8.42188H5.80078C5.08887 8.42188 4.51172 7.84472 4.51172 7.13281V4.51172C4.51172 3.79981 5.08887 3.22266 5.80078 3.22266H17.4883C18.2002 3.22266 18.7773 3.79981 18.7773 4.51172V7.13281C18.7773 7.84472 18.2002 8.42188 17.4883 8.42188Z" stroke="currentColor" stroke-opacity="0.6" stroke-width="1.2" stroke-miterlimit="10" stroke-linecap="round" stroke-linejoin="round"/>
<path d="M18.7773 5.84375C20.2012 5.84375 21.3555 6.99802 21.3555 8.42188C21.3555 9.84573 20.2012 11 18.7773 11H13.5781C12.8662 11 12.2891 11.5772 12.2891 12.2891V13.5781" stroke="currentColor" stroke-opacity="0.6" stroke-width="1.2" stroke-miterlimit="10" stroke-linecap="round" stroke-linejoin="round"/>
<path d="M3.22266 5.84375H4.51172" stroke="currentColor" stroke-opacity="0.6" stroke-width="1.2" stroke-miterlimit="10" stroke-linecap="round" stroke-linejoin="round"/>
<path d="M12.2891 13.5781C11.5772 13.5781 11 14.1553 11 14.8672V20.0664C11 20.7783 11.5772 21.3555 12.2891 21.3555C13.001 21.3555 13.5781 20.7783 13.5781 20.0664V14.8672C13.5781 14.1553 13.001 13.5781 12.2891 13.5781Z" stroke="currentColor" stroke-opacity="0.6" stroke-width="1.2" stroke-miterlimit="10" stroke-linecap="round" stroke-linejoin="round"/>
<path d="M11 8.42188V9.71094C11 10.4278 10.4164 11.0114 9.69972 11C8.99134 10.9887 8.42187 11.5812 8.42187 12.2891V13.5781C8.42187 14.295 7.79535 14.8786 7.07863 14.8671C6.37025 14.8558 5.80078 15.4484 5.80078 16.1563V17.4883C5.80078 18.2002 5.22362 18.7773 4.51172 18.7773H4.51047C3.79925 18.7773 3.22266 19.3539 3.22266 20.0651V20.0664C3.22266 20.7783 2.6455 21.3555 1.93359 21.3555C1.22169 21.3555 0.644531 20.7783 0.644531 20.0664V1.9336C0.644531 1.22169 1.22169 0.644533 1.93359 0.644533H13.5781C14.29 0.644533 14.8672 1.22169 14.8672 1.9336V3.22266" stroke="currentColor" stroke-opacity="0.6" stroke-width="1.2" stroke-miterlimit="10" stroke-linecap="round" stroke-linejoin="round"/>
</g>
</g>
<defs>
<clipPath id="clip0_2001_2472">
<rect width="22" height="22" fill="white"/>
</clipPath>
</defs>
</svg>
