<svg width="22" height="22" viewBox="0 0 22 22" fill="none" xmlns="http://www.w3.org/2000/svg">
<rect width="22" height="22" rx="11" fill="#1E1E1E" fill-opacity="0.05"/>
<g clip-path="url(#clip0_58_1454)">
<path d="M15.9784 9.79731L15.6681 7.12059C15.5905 6.46111 15.0474 5.96973 14.3879 5.96973H7.61207C6.95259 5.96973 6.40948 6.46111 6.3319 7.12059L6.02155 9.79731C5.41379 10.0301 5 10.612 5 11.2585V14.1292C5.01293 14.3361 5.18103 14.5042 5.38793 14.5171H5.77586V15.6421C5.78879 15.849 5.9569 16.0171 6.16379 16.0301H8.36207C8.5819 16.0301 8.75 15.862 8.75 15.6421V14.5171H13.25V15.6421C13.25 15.862 13.4181 16.0301 13.6379 16.0301H15.8362C16.0431 16.0171 16.2112 15.849 16.2241 15.6421V14.5171H16.6121C16.819 14.5042 16.9871 14.3361 17 14.1292V11.2585C17 10.612 16.5862 10.0301 15.9784 9.79731ZM7.10776 7.21111C7.13362 6.95249 7.35345 6.74559 7.61207 6.74559H14.3879C14.6466 6.74559 14.8664 6.95249 14.8922 7.21111L15.1767 9.70679H6.82328L7.10776 7.21111ZM8.53017 12.9008C8.51724 12.9008 8.51724 12.9008 8.50431 12.9008H7.0431C6.83621 12.9137 6.6681 12.7456 6.65517 12.5387C6.65517 12.5258 6.65517 12.5258 6.65517 12.5128V11.7628C6.65517 11.543 6.82328 11.3749 7.0431 11.3749H8.50431C8.72414 11.3749 8.89224 11.543 8.89224 11.7628V12.5128C8.90517 12.7197 8.73707 12.8878 8.53017 12.9008ZM12.2672 12.4999H9.73276V11.724H12.2672V12.4999ZM14.9828 12.9008C14.9698 12.9008 14.9698 12.9008 14.9569 12.9008H13.4957C13.2888 12.9137 13.1207 12.7456 13.1078 12.5387C13.1078 12.5258 13.1078 12.5258 13.1078 12.5128V11.7628C13.1078 11.543 13.2759 11.3749 13.4957 11.3749H14.9569C15.1767 11.3749 15.3448 11.543 15.3448 11.7628V12.5128C15.3578 12.7197 15.1897 12.8878 14.9828 12.9008Z" fill="#ED1C24"/>
</g>
<defs>
<clipPath id="clip0_58_1454">
<rect width="12" height="12" fill="white" transform="translate(5 5)"/>
</clipPath>
</defs>
</svg>
