<svg width="24" height="24" viewBox="0 0 24 24" fill="none" xmlns="http://www.w3.org/2000/svg">
<path d="M10.9609 2.04613C11.5168 1.43043 12.4832 1.43043 13.0391 2.04613L14.3251 3.47036C14.8491 4.0507 15.6064 4.36441 16.3873 4.32457L18.3037 4.2268C19.1322 4.18453 19.8155 4.86784 19.7732 5.69631L19.6754 7.6127C19.6356 8.39359 19.9493 9.15094 20.5296 9.67494L21.9539 10.9609C22.5696 11.5168 22.5696 12.4832 21.9539 13.0391L20.5296 14.3251C19.9493 14.8491 19.6356 15.6064 19.6754 16.3873L19.7732 18.3037C19.8155 19.1322 19.1322 19.8155 18.3037 19.7732L16.3873 19.6754C15.6064 19.6356 14.8491 19.9493 14.3251 20.5296L13.0391 21.9539C12.4832 22.5696 11.5168 22.5696 10.9609 21.9539L9.67494 20.5296C9.15094 19.9493 8.39359 19.6356 7.6127 19.6754L5.69631 19.7732C4.86784 19.8155 4.18453 19.1322 4.2268 18.3037L4.32457 16.3873C4.36441 15.6064 4.0507 14.8491 3.47036 14.3251L2.04613 13.0391C1.43043 12.4832 1.43043 11.5168 2.04613 10.9609L3.47036 9.67494C4.0507 9.15094 4.36441 8.39359 4.32457 7.6127L4.2268 5.69631C4.18453 4.86784 4.86784 4.18453 5.69631 4.2268L7.6127 4.32457C8.39359 4.36441 9.15094 4.0507 9.67494 3.47036L10.9609 2.04613Z" stroke="currentColor" stroke-opacity="0.6" stroke-width="1.2"/>
<path d="M12 8L14 11.0939L17 9.83756L16 15H8L7 9.83756L10 11.0939L12 8Z" stroke="currentColor" stroke-opacity="0.6" stroke-width="1.2" stroke-miterlimit="10" stroke-linecap="round" stroke-linejoin="round"/>
</svg>
