<svg width="20" height="20" viewBox="0 0 20 20" fill="none" xmlns="http://www.w3.org/2000/svg">
<path d="M8.9609 1.13705C9.51683 0.521346 10.4832 0.521346 11.0391 1.13705L12.0153 2.2182C12.5393 2.79854 13.2967 3.11225 14.0775 3.07241L15.5323 2.99819C16.3608 2.95592 17.0441 3.63924 17.0018 4.4677L16.9276 5.92247C16.8878 6.70336 17.2015 7.46071 17.7818 7.9847L18.863 8.9609C19.4787 9.51683 19.4787 10.4832 18.863 11.0391L17.7818 12.0153C17.2015 12.5393 16.8878 13.2967 16.9276 14.0775L17.0018 15.5323C17.0441 16.3608 16.3608 17.0441 15.5323 17.0018L14.0775 16.9276C13.2966 16.8878 12.5393 17.2015 12.0153 17.7818L11.0391 18.863C10.4832 19.4787 9.51683 19.4787 8.9609 18.863L7.9847 17.7818C7.4607 17.2015 6.70335 16.8878 5.92247 16.9276L4.4677 17.0018C3.63924 17.0441 2.95592 16.3608 2.99819 15.5323L3.07241 14.0775C3.11225 13.2966 2.79854 12.5393 2.2182 12.0153L1.13705 11.0391C0.521346 10.4832 0.521346 9.51683 1.13705 8.9609L2.2182 7.9847C2.79854 7.4607 3.11225 6.70335 3.07241 5.92247L2.99819 4.4677C2.95592 3.63924 3.63924 2.95592 4.4677 2.99819L5.92247 3.07241C6.70336 3.11225 7.46071 2.79854 7.9847 2.2182L8.9609 1.13705Z" stroke="currentColor" stroke-width="1.2"/>
<path d="M10 6.36363L11.8182 9.17627L14.5455 8.03414L13.6364 12.7273H6.36364L5.45454 8.03414L8.18182 9.17627L10 6.36363Z" stroke="currentColor" stroke-width="1.2" stroke-miterlimit="10" stroke-linecap="round" stroke-linejoin="round"/>
</svg>
