<svg width="20" height="20" viewBox="0 0 20 20" fill="none" xmlns="http://www.w3.org/2000/svg">
<mask id="mask0_218_506" style="mask-type:luminance" maskUnits="userSpaceOnUse" x="0" y="0" width="20" height="20">
<path d="M20 0H0V20H20V0Z" fill="white"/>
<path d="M14.2969 6.13281C14.2969 6.5643 13.9471 6.91406 13.5156 6.91406C13.0841 6.91406 12.7344 6.5643 12.7344 6.13281C12.7344 5.70133 13.0841 5.35156 13.5156 5.35156C13.9471 5.35156 14.2969 5.70133 14.2969 6.13281Z" fill="white"/>
<path d="M7.26562 6.13281C7.26562 6.5643 6.91586 6.91406 6.48437 6.91406C6.05289 6.91406 5.70312 6.5643 5.70312 6.13281C5.70312 5.70133 6.05289 5.35156 6.48437 5.35156C6.91586 5.35156 7.26562 5.70133 7.26562 6.13281Z" fill="white"/>
<path d="M10.7812 8.47656C10.7812 8.90805 10.4315 9.25781 10 9.25781C9.56852 9.25781 9.21875 8.90805 9.21875 8.47656C9.21875 8.04508 9.56852 7.69531 10 7.69531C10.4315 7.69531 10.7812 8.04508 10.7812 8.47656Z" fill="white"/>
<path d="M10.7812 3.78906C10.7812 4.22055 10.4315 4.57031 10 4.57031C9.56852 4.57031 9.21875 4.22055 9.21875 3.78906C9.21875 3.35758 9.56852 3.00781 10 3.00781C10.4315 3.00781 10.7812 3.35758 10.7812 3.78906Z" fill="white"/>
</mask>
<g mask="url(#mask0_218_506)">
<mask id="mask1_218_506" style="mask-type:luminance" maskUnits="userSpaceOnUse" x="0" y="0" width="20" height="20">
<path d="M0 1.90735e-06H20V20H0V1.90735e-06Z" fill="white"/>
</mask>
<g mask="url(#mask1_218_506)">
<path d="M3.90629 10.3906L2.97375 4.76562C2.64515 2.90918 3.75004 0.78125 10 0.78125C16.25 0.78125 17.3549 2.90918 17.0263 4.76562L16.0938 10.2734" stroke="currentColor" stroke-opacity="1" stroke-width="1.2" stroke-miterlimit="10"/>
<path d="M17.8404 8.20313C17.2608 8.20313 16.7432 8.5657 16.5451 9.11043L15.9069 10.8653C15.5695 11.7932 14.5671 12.2988 13.6214 12.0152C12.6293 11.7177 11.4082 11.4063 10 11.4063C8.59176 11.4063 7.37071 11.7177 6.37864 12.0152C5.43289 12.2988 4.43051 11.7932 4.09309 10.8653L3.45492 9.11043C3.25688 8.5657 2.73918 8.20313 2.15957 8.20313C1.40157 8.20313 0.781839 8.8152 0.781253 9.57324C0.780589 10.4338 0.885745 11.383 1.05235 12.3729C1.45176 14.7463 3.50696 16.4844 5.91371 16.4844H14.1246C16.5678 16.4844 18.6396 14.6941 19.0011 12.2779C19.1413 11.3403 19.2191 10.4331 19.2188 9.57539C19.2184 8.81652 18.5993 8.20313 17.8404 8.20313Z" stroke="currentColor" stroke-opacity="1" stroke-width="1.2" stroke-miterlimit="10"/>
<path d="M14.2969 6.13281C14.2969 6.5643 13.9471 6.91406 13.5156 6.91406C13.0841 6.91406 12.7344 6.5643 12.7344 6.13281C12.7344 5.70133 13.0841 5.35156 13.5156 5.35156C13.9471 5.35156 14.2969 5.70133 14.2969 6.13281Z" fill="#1E1E1E" fill-opacity="0.6"/>
<path d="M7.26562 6.13281C7.26562 6.5643 6.91586 6.91406 6.48437 6.91406C6.05289 6.91406 5.70312 6.5643 5.70312 6.13281C5.70312 5.70133 6.05289 5.35156 6.48437 5.35156C6.91586 5.35156 7.26562 5.70133 7.26562 6.13281Z" fill="#1E1E1E" fill-opacity="0.6"/>
<path d="M10.7812 8.47656C10.7812 8.90805 10.4315 9.25781 10 9.25781C9.56852 9.25781 9.21875 8.90805 9.21875 8.47656C9.21875 8.04508 9.56852 7.69531 10 7.69531C10.4315 7.69531 10.7812 8.04508 10.7812 8.47656Z" fill="#1E1E1E" fill-opacity="0.6"/>
<path d="M10.7812 3.78906C10.7812 4.22055 10.4315 4.57031 10 4.57031C9.56852 4.57031 9.21875 4.22055 9.21875 3.78906C9.21875 3.35758 9.56852 3.00781 10 3.00781C10.4315 3.00781 10.7812 3.35758 10.7812 3.78906Z" fill="#1E1E1E" fill-opacity="0.6"/>
<path d="M5.16996 16.875C5.16996 16.875 4.95687 19.2188 2.46094 19.2188" stroke="currentColor" stroke-opacity="1" stroke-width="1.2" stroke-miterlimit="10"/>
<path d="M14.8301 16.875C14.8301 16.875 15.0432 19.2188 17.5391 19.2188" stroke="currentColor" stroke-opacity="1" stroke-width="1.2" stroke-miterlimit="10"/>
</g>
</g>
</svg>
