<svg width="20" height="20" viewBox="0 0 20 20" fill="none" xmlns="http://www.w3.org/2000/svg">
<mask id="mask0_218_1594" style="mask-type:luminance" maskUnits="userSpaceOnUse" x="0" y="0" width="20" height="20">
<path d="M0 1.90735e-06H20V20H0V1.90735e-06Z" fill="white"/>
</mask>
<g mask="url(#mask0_218_1594)">
<path d="M15.8984 18.2031H1.75781C1.11062 18.2031 0.585938 17.6784 0.585938 17.0312V8.82812C0.585938 8.18094 1.11062 7.65625 1.75781 7.65625H15.8984C16.5456 7.65625 17.0703 8.18094 17.0703 8.82812V17.0312C17.0703 17.6784 16.5456 18.2031 15.8984 18.2031Z" stroke="currentColor" stroke-opacity="1" stroke-width="1.2" stroke-miterlimit="10" stroke-linecap="round" stroke-linejoin="round"/>
<path d="M2.92969 7.65625V2.96875C2.92969 2.32156 3.45437 1.79688 4.10156 1.79688H18.2422C18.8894 1.79688 19.4141 2.32156 19.4141 2.96875V11.1719C19.4141 11.8191 18.8894 12.3438 18.2422 12.3438H17.0703" stroke="currentColor" stroke-opacity="1" stroke-width="1.2" stroke-miterlimit="10" stroke-linecap="round" stroke-linejoin="round"/>
<path d="M19.4141 4.14062H2.92969" stroke="currentColor" stroke-opacity="1" stroke-width="1.2" stroke-miterlimit="10" stroke-linecap="round" stroke-linejoin="round"/>
<path d="M6.44531 12.3438H2.92969V10H6.44531V12.3438Z" stroke="currentColor" stroke-opacity="1" stroke-width="1.2" stroke-miterlimit="10" stroke-linecap="round" stroke-linejoin="round"/>
<path d="M8.78906 10H14.7266" stroke="currentColor" stroke-opacity="1" stroke-width="1.2" stroke-miterlimit="10" stroke-linecap="round" stroke-linejoin="round"/>
<path d="M2.92969 15.8594H4.10156" stroke="currentColor" stroke-opacity="1" stroke-width="1.2" stroke-miterlimit="10" stroke-linecap="round" stroke-linejoin="round"/>
<path d="M6.44531 15.8594H7.61719" stroke="currentColor" stroke-opacity="1" stroke-width="1.2" stroke-miterlimit="10" stroke-linecap="round" stroke-linejoin="round"/>
<path d="M9.96094 15.8594H11.1719" stroke="currentColor" stroke-opacity="1" stroke-width="1.2" stroke-miterlimit="10" stroke-linecap="round" stroke-linejoin="round"/>
<path d="M13.5156 15.8594H14.7266" stroke="currentColor" stroke-opacity="1" stroke-width="1.2" stroke-miterlimit="10" stroke-linecap="round" stroke-linejoin="round"/>
</g>
</svg>
