<svg width="22" height="22" viewBox="0 0 22 22" fill="none" xmlns="http://www.w3.org/2000/svg">
<path d="M19.8257 19.8257C19.0742 20.5772 18.1068 20.9797 16.6892 21.1877C15.2513 21.3986 13.4272 21.4001 11 21.4001C8.57279 21.4001 6.74872 21.3986 5.31082 21.1877C3.89316 20.9797 2.92584 20.5772 2.17436 19.8257C1.42287 19.0742 1.02038 18.1069 0.812408 16.6892C0.601465 15.2513 0.6 13.4272 0.6 11C0.6 8.57282 0.601465 6.74875 0.812408 5.31085C1.02038 3.89318 1.42287 2.92584 2.17435 2.17436C2.92584 1.42287 3.89317 1.02038 5.31082 0.812407C6.74872 0.601465 8.57279 0.6 11 0.6C13.4272 0.6 15.2513 0.601465 16.6892 0.812407C18.1068 1.02038 19.0742 1.42287 19.8257 2.17436C20.5772 2.92588 20.9796 3.89286 21.1876 5.31026C21.3985 6.74795 21.4 8.57201 21.4 11C21.4 13.4281 21.3985 15.2521 21.1876 16.6898C20.9796 18.1072 20.5772 19.0742 19.8257 19.8257Z" stroke="currentColor" stroke-opacity="1" stroke-width="1.2"/>
<path d="M12.9902 14.0405L12.9914 14.0397C13.4729 13.7069 13.8452 13.251 14.1096 12.6775L15.7646 13.2308C15.461 14.0775 14.916 14.7366 14.1255 15.2122L14.1254 15.2122L14.1239 15.2132C13.31 15.7163 12.3453 15.9708 11.2239 15.9708C9.69271 15.9708 8.45947 15.4967 7.51019 14.5565C6.58434 13.6165 6.1171 12.3904 6.1171 10.864C6.1171 9.33752 6.58435 8.11141 7.51021 7.17143C8.45948 6.23127 9.69271 5.75718 11.2239 5.75718C12.3453 5.75718 13.31 6.01163 14.1239 6.5148L14.1239 6.51481L14.1255 6.51575C14.916 6.99132 15.461 7.65042 15.7646 8.49715L14.1096 9.05048C13.8454 8.47902 13.4732 8.03392 12.9909 7.72174C12.4953 7.36324 11.9038 7.18682 11.2239 7.18682C10.3536 7.18682 9.62748 7.43313 9.05827 7.93544C8.49117 8.41324 8.12665 9.07847 7.95783 9.91875L7.92175 10.0983H8.10489H12.4057V11.4262H8.06985H7.89867L7.92115 11.5959C8.04173 12.5064 8.39404 13.2316 8.98661 13.7572C9.57896 14.2827 10.3288 14.5411 11.2239 14.5411C11.9032 14.5411 12.4943 14.3764 12.9902 14.0405Z" fill="#1E1E1E" fill-opacity="1" stroke="white" stroke-width="0.3"/>
</svg>
