<svg width="22" height="22" viewBox="0 0 22 22" fill="none" xmlns="http://www.w3.org/2000/svg">
<path d="M0.859375 7.71875H12.5469" stroke="currentColor" stroke-width="1.5" stroke-miterlimit="10" stroke-linecap="round" stroke-linejoin="round"/>
<path d="M14.2656 9.4375C15.2149 9.4375 15.9844 8.66799 15.9844 7.71875C15.9844 6.76951 15.2149 6 14.2656 6C13.3164 6 12.5469 6.76951 12.5469 7.71875C12.5469 8.66799 13.3164 9.4375 14.2656 9.4375Z" stroke="currentColor" stroke-width="1.5" stroke-miterlimit="10" stroke-linecap="round" stroke-linejoin="round"/>
<path d="M21 7.71875H19" stroke="currentColor" stroke-width="1.5" stroke-miterlimit="10" stroke-linecap="round" stroke-linejoin="round"/>
<path d="M0.859375 13.875H3.95312" stroke="currentColor" stroke-width="1.5" stroke-miterlimit="10" stroke-linecap="round" stroke-linejoin="round"/>
<path d="M5.67188 15.5938C6.62111 15.5938 7.39062 14.8242 7.39062 13.875C7.39062 12.9258 6.62111 12.1562 5.67188 12.1562C4.72264 12.1562 3.95312 12.9258 3.95312 13.875C3.95312 14.8242 4.72264 15.5938 5.67188 15.5938Z" stroke="currentColor" stroke-width="1.5" stroke-miterlimit="10" stroke-linecap="round" stroke-linejoin="round"/>
<path d="M21.1406 13.875H10.8281" stroke="currentColor" stroke-width="1.5" stroke-miterlimit="10" stroke-linecap="round" stroke-linejoin="round"/>
</svg>
