<svg width="20" height="20" viewBox="0 0 20 20" fill="none" xmlns="http://www.w3.org/2000/svg">
<g clip-path="url(#clip0_218_1639)">
<path d="M6.17887 6.90237V13.047H4.97438V8.13549H4.94099L3.63635 9.01758V7.86546L5.0467 6.90237H6.17887Z" fill="#1E1E1E" fill-opacity="0.6"/>
<path d="M9.2183 13.182C8.73984 13.18 8.32814 13.053 7.9832 12.801C7.64012 12.5489 7.37585 12.1839 7.1904 11.7058C7.00681 11.2278 6.91594 10.6527 6.91779 9.98068C6.91779 9.31061 7.00959 8.73955 7.19319 8.2675C7.37864 7.79546 7.6429 7.43642 7.98599 7.1904C8.33092 6.94237 8.74169 6.81836 9.2183 6.81836C9.69491 6.81836 10.1048 6.94237 10.4478 7.1904C10.7928 7.43842 11.058 7.79846 11.2434 8.2705C11.4289 8.74055 11.5207 9.31061 11.5188 9.98068C11.5188 10.6547 11.4261 11.2308 11.2406 11.7088C11.057 12.1869 10.7937 12.5519 10.4506 12.804C10.1075 13.056 9.69676 13.182 9.2183 13.182ZM9.2183 12.1049C9.54469 12.1049 9.80525 11.9279 9.99997 11.5738C10.1947 11.2198 10.2911 10.6887 10.2893 9.98068C10.2893 9.51463 10.2448 9.12659 10.1558 8.81656C10.0686 8.50653 9.94434 8.2735 9.783 8.11749C9.62351 7.96147 9.43528 7.88347 9.2183 7.88347C8.89376 7.88347 8.63413 8.05848 8.43941 8.40852C8.24469 8.75855 8.1464 9.28261 8.14455 9.98068C8.14455 10.4527 8.18813 10.8468 8.27529 11.1628C8.3643 11.4768 8.48948 11.7128 8.65082 11.8709C8.81217 12.0269 9.00133 12.1049 9.2183 12.1049Z" fill="#1E1E1E" fill-opacity="0.6"/>
<path d="M14.0631 13.182C13.5846 13.18 13.1729 13.053 12.828 12.801C12.4849 12.5489 12.2206 12.1839 12.0352 11.7058C11.8516 11.2278 11.7607 10.6527 11.7626 9.98068C11.7626 9.31061 11.8544 8.73955 12.038 8.2675C12.2234 7.79546 12.4877 7.43642 12.8308 7.1904C13.1757 6.94237 13.5865 6.81836 14.0631 6.81836C14.5397 6.81836 14.9495 6.94237 15.2926 7.1904C15.6376 7.43842 15.9028 7.79846 16.0882 8.2705C16.2737 8.74055 16.3655 9.31061 16.3636 9.98068C16.3636 10.6547 16.2709 11.2308 16.0854 11.7088C15.9018 12.1869 15.6385 12.5519 15.2954 12.804C14.9523 13.056 14.5415 13.182 14.0631 13.182ZM14.0631 12.1049C14.3895 12.1049 14.65 11.9279 14.8448 11.5738C15.0395 11.2198 15.1359 10.6887 15.1341 9.98068C15.1341 9.51463 15.0896 9.12659 15.0005 8.81656C14.9134 8.50653 14.7891 8.2735 14.6278 8.11749C14.4683 7.96147 14.2801 7.88347 14.0631 7.88347C13.7385 7.88347 13.4789 8.05848 13.2842 8.40852C13.0895 8.75855 12.9912 9.28261 12.9893 9.98068C12.9893 10.4527 13.0329 10.8468 13.1201 11.1628C13.2091 11.4768 13.3343 11.7128 13.4956 11.8709C13.657 12.0269 13.8461 12.1049 14.0631 12.1049Z" fill="#1E1E1E" fill-opacity="0.6"/>
<circle cx="10" cy="10" r="9.4" stroke="currentColor" stroke-opacity="1" stroke-width="1.2"/>
</g>
<defs>
<clipPath id="clip0_218_1639">
<rect width="20" height="20" fill="white"/>
</clipPath>
</defs>
</svg>
