<svg width="22" height="22" viewBox="0 0 22 22" fill="none" xmlns="http://www.w3.org/2000/svg">
<rect width="22" height="22" rx="11" fill="#1E1E1E" fill-opacity="0.05"/>
<path d="M10.732 5.03846C10.732 5.34274 10.8198 5.64019 10.9842 5.89318C11.1485 6.14618 11.3822 6.34337 11.6555 6.45981C11.9289 6.57626 12.2297 6.60672 12.5199 6.54736C12.8101 6.488 13.0767 6.34148 13.2859 6.12632C13.4951 5.91116 13.6376 5.63703 13.6953 5.3386C13.753 5.04017 13.7234 4.73083 13.6102 4.44972C13.4969 4.1686 13.3052 3.92833 13.0592 3.75928C12.8132 3.59023 12.5239 3.5 12.228 3.5C12.0316 3.49994 11.837 3.5397 11.6555 3.617C11.474 3.69429 11.309 3.80761 11.1701 3.95048C11.0312 4.09335 10.921 4.26297 10.8458 4.44965C10.7706 4.63633 10.732 4.83641 10.732 5.03846ZM6.01961 17.5577C6.06738 17.8219 6.2034 18.0607 6.40417 18.2327C6.60494 18.4048 6.85784 18.4993 7.11918 18.5C7.18939 18.4995 7.25944 18.4931 7.32862 18.4808C7.47412 18.4531 7.61284 18.396 7.73675 18.3128C7.86065 18.2297 7.96727 18.122 8.05044 17.9962L10.8742 13.8423L11.5848 14.6923C11.7583 14.9015 11.8538 15.1673 11.854 15.4423V17.3462C11.854 17.6522 11.9722 17.9457 12.1827 18.162C12.3931 18.3784 12.6785 18.5 12.976 18.5C13.2736 18.5 13.559 18.3784 13.7694 18.162C13.9798 17.9457 14.098 17.6522 14.098 17.3462V14.8269C14.0987 14.377 13.9451 13.9412 13.6642 13.5962L12.2505 11.85L12.4786 10.4538L12.5572 10.5346C12.9368 10.929 13.3845 11.2472 13.8774 11.4731L14.4421 11.7346C14.5779 11.7935 14.7237 11.8242 14.871 11.8251C15.0184 11.8261 15.1645 11.7971 15.301 11.74C15.4375 11.6828 15.5617 11.5986 15.6665 11.4921C15.7713 11.3856 15.8547 11.2589 15.912 11.1192C15.9692 10.9796 15.9991 10.8297 16 10.6782C16.0009 10.5266 15.9727 10.3764 15.9172 10.236C15.8616 10.0957 15.7797 9.96792 15.6761 9.86012C15.5726 9.75231 15.4494 9.66653 15.3136 9.60769L14.977 9.44615C14.3143 9.12766 13.7378 8.64696 13.2977 8.04615L12.9012 7.5C12.8552 7.43835 12.7929 7.39162 12.7217 7.36538L10.4777 6.59615C10.4001 6.56923 10.316 6.56923 10.2384 6.59615L8.26362 7.27308C8.00574 7.36169 7.78782 7.54342 7.65026 7.78462L6.5133 9.77692C6.44135 9.91071 6.39597 10.0579 6.3798 10.2098C6.36363 10.3618 6.37699 10.5156 6.4191 10.6622C6.46121 10.8088 6.53123 10.9454 6.6251 11.0639C6.71897 11.1824 6.83481 11.2806 6.96589 11.3527C7.09697 11.4249 7.24068 11.4695 7.38867 11.484C7.53666 11.4985 7.68597 11.4826 7.82794 11.4373C7.96991 11.3919 8.10171 11.318 8.21567 11.2198C8.32962 11.1217 8.42347 11.0012 8.49176 10.8654L9.05651 9.72308C9.07859 9.67835 9.10916 9.63863 9.14642 9.60626C9.18367 9.57389 9.22686 9.54953 9.27343 9.53462L9.54645 9.43846L9.24725 12.2077L6.19913 16.6923C6.11464 16.817 6.05522 16.9577 6.02439 17.1064C5.99357 17.255 5.99194 17.4084 6.01961 17.5577Z" fill="#ED1C24"/>
</svg>
