<svg width="20" height="20" viewBox="0 0 20 20" fill="none" xmlns="http://www.w3.org/2000/svg">
<mask id="mask0_218_1302" style="mask-type:luminance" maskUnits="userSpaceOnUse" x="0" y="0" width="20" height="20">
<path d="M0 1.90735e-06H20V20H0V1.90735e-06Z" fill="white"/>
</mask>
<g mask="url(#mask0_218_1302)">
<path d="M0.585938 17.9688H19.4141" stroke="currentColor" stroke-opacity="1" stroke-width="1.2" stroke-miterlimit="10" stroke-linecap="round"/>
<path d="M8.75711 3.41172H2.92969L0.585938 8.09668H19.4141L17.0703 3.41172H11.2429" stroke="currentColor" stroke-opacity="1" stroke-width="1.2" stroke-miterlimit="10" stroke-linejoin="round"/>
<path d="M18.2422 8.0966H1.75781V17.9688H18.2422V8.0966Z" stroke="currentColor" stroke-opacity="1" stroke-width="1.2" stroke-miterlimit="10" stroke-linecap="round" stroke-linejoin="round"/>
<path d="M15.5087 8.09668L10 2.04672L4.49133 8.09668" stroke="currentColor" stroke-opacity="1" stroke-width="1.2" stroke-miterlimit="10" stroke-linejoin="round"/>
</g>
<path d="M15.6315 11.8066V10.6328" stroke="currentColor" stroke-opacity="1" stroke-width="1.2" stroke-miterlimit="10" stroke-linecap="round" stroke-linejoin="round"/>
<path d="M10 11.8066V10.6328" stroke="currentColor" stroke-opacity="1" stroke-width="1.2" stroke-miterlimit="10" stroke-linecap="round" stroke-linejoin="round"/>
<path d="M12.8157 11.8066V10.6328" stroke="currentColor" stroke-opacity="1" stroke-width="1.2" stroke-miterlimit="10" stroke-linecap="round" stroke-linejoin="round"/>
<path d="M7.18433 11.8066V10.6328" stroke="currentColor" stroke-opacity="1" stroke-width="1.2" stroke-miterlimit="10" stroke-linecap="round" stroke-linejoin="round"/>
<path d="M4.36853 11.8066V10.6328" stroke="currentColor" stroke-opacity="1" stroke-width="1.2" stroke-miterlimit="10" stroke-linecap="round" stroke-linejoin="round"/>
<path d="M15.6315 15.4956V14.3218" stroke="currentColor" stroke-opacity="1" stroke-width="1.2" stroke-miterlimit="10" stroke-linecap="round" stroke-linejoin="round"/>
<mask id="mask1_218_1302" style="mask-type:luminance" maskUnits="userSpaceOnUse" x="0" y="0" width="20" height="20">
<path d="M0 1.90735e-06H20V20H0V1.90735e-06Z" fill="white"/>
</mask>
<g mask="url(#mask1_218_1302)">
<path d="M10 17.9688V14.3217" stroke="currentColor" stroke-opacity="1" stroke-width="1.2" stroke-miterlimit="10" stroke-linecap="round" stroke-linejoin="round"/>
</g>
<path d="M12.8157 15.4956V14.3218" stroke="currentColor" stroke-opacity="1" stroke-width="1.2" stroke-miterlimit="10" stroke-linecap="round" stroke-linejoin="round"/>
<path d="M7.18433 15.4956V14.3218" stroke="currentColor" stroke-opacity="1" stroke-width="1.2" stroke-miterlimit="10" stroke-linecap="round" stroke-linejoin="round"/>
<path d="M4.36853 15.4956V14.3218" stroke="currentColor" stroke-opacity="1" stroke-width="1.2" stroke-miterlimit="10" stroke-linecap="round" stroke-linejoin="round"/>
</svg>
